<mxfile host="Electron" modified="2023-06-08T14:30:53.581Z" agent="Mozilla/5.0 (Macintosh; Intel Mac OS X 10_15_7) AppleWebKit/537.36 (KHTML, like Gecko) draw.io/21.2.8 Chrome/112.0.5615.165 Electron/24.2.0 Safari/537.36" etag="vVuM7OwOnXqax3pbt7nf" version="21.2.8" type="device">
  <diagram name="Page-1" id="7H5SS_sxkA-IburfR-Y_">
    <mxGraphModel dx="1275" dy="876" grid="1" gridSize="10" guides="1" tooltips="1" connect="1" arrows="1" fold="1" page="1" pageScale="1" pageWidth="1100" pageHeight="850" math="0" shadow="0">
      <root>
        <mxCell id="0" />
        <mxCell id="1" parent="0" />
        <mxCell id="9X4uK67-wVAKvBLCsRBX-50" value="" style="rounded=1;whiteSpace=wrap;html=1;fillColor=#f5f5f5;fontColor=#333333;strokeColor=#666666;" vertex="1" parent="1">
          <mxGeometry x="140" y="80" width="240" height="410" as="geometry" />
        </mxCell>
        <mxCell id="SYLELa0iopPJu-6488nc-7" value="" style="rounded=1;whiteSpace=wrap;html=1;fontSize=24;fillColor=#dae8fc;strokeColor=#6c8ebf;" parent="1" vertex="1">
          <mxGeometry x="460" y="80" width="530" height="410" as="geometry" />
        </mxCell>
        <mxCell id="9X4uK67-wVAKvBLCsRBX-52" value="Docker container (ephemeral)" style="text;html=1;align=center;verticalAlign=middle;resizable=0;points=[];autosize=1;strokeColor=none;fillColor=none;fontSize=14;fontStyle=1" vertex="1" parent="SYLELa0iopPJu-6488nc-7">
          <mxGeometry x="155" width="220" height="30" as="geometry" />
        </mxCell>
        <mxCell id="SYLELa0iopPJu-6488nc-10" value="" style="image;sketch=0;aspect=fixed;html=1;points=[];align=center;fontSize=24;image=img/lib/mscae/Docker.svg;clipPath=inset(0% 0% 28.57% 0%);" parent="1" vertex="1">
          <mxGeometry x="683.75" y="429" width="82.5" height="49.5" as="geometry" />
        </mxCell>
        <mxCell id="9X4uK67-wVAKvBLCsRBX-46" value="Volume&lt;br&gt;mount" style="edgeStyle=orthogonalEdgeStyle;rounded=0;orthogonalLoop=1;jettySize=auto;html=1;" edge="1" parent="1" source="9X4uK67-wVAKvBLCsRBX-6" target="9X4uK67-wVAKvBLCsRBX-8">
          <mxGeometry x="0.2977" y="-2" relative="1" as="geometry">
            <mxPoint as="offset" />
          </mxGeometry>
        </mxCell>
        <mxCell id="9X4uK67-wVAKvBLCsRBX-6" value="Reference Data" style="sketch=0;shadow=0;dashed=0;html=1;strokeColor=none;fillColor=#505050;labelPosition=center;verticalLabelPosition=bottom;verticalAlign=top;outlineConnect=0;align=center;shape=mxgraph.office.databases.database_mini_2;" vertex="1" parent="1">
          <mxGeometry x="235.5" y="227.04000000000002" width="35" height="42" as="geometry" />
        </mxCell>
        <mxCell id="9X4uK67-wVAKvBLCsRBX-45" value="Volume &lt;br&gt;mount" style="edgeStyle=orthogonalEdgeStyle;rounded=0;orthogonalLoop=1;jettySize=auto;html=1;" edge="1" parent="1" source="9X4uK67-wVAKvBLCsRBX-7" target="9X4uK67-wVAKvBLCsRBX-9">
          <mxGeometry x="0.3137" y="-3" relative="1" as="geometry">
            <mxPoint as="offset" />
          </mxGeometry>
        </mxCell>
        <mxCell id="9X4uK67-wVAKvBLCsRBX-7" value="Sequencing&lt;br&gt;Reads" style="sketch=0;pointerEvents=1;shadow=0;dashed=0;html=1;strokeColor=none;fillColor=#505050;labelPosition=center;verticalLabelPosition=bottom;verticalAlign=top;outlineConnect=0;align=center;shape=mxgraph.office.concepts.documents;" vertex="1" parent="1">
          <mxGeometry x="230" y="120.00000000000003" width="46" height="54" as="geometry" />
        </mxCell>
        <mxCell id="9X4uK67-wVAKvBLCsRBX-22" value="" style="edgeStyle=orthogonalEdgeStyle;rounded=0;orthogonalLoop=1;jettySize=auto;html=1;" edge="1" parent="1" source="9X4uK67-wVAKvBLCsRBX-8" target="9X4uK67-wVAKvBLCsRBX-13">
          <mxGeometry relative="1" as="geometry" />
        </mxCell>
        <mxCell id="9X4uK67-wVAKvBLCsRBX-8" value="Reference Data" style="sketch=0;shadow=0;dashed=0;html=1;strokeColor=none;fillColor=#505050;labelPosition=center;verticalLabelPosition=bottom;verticalAlign=top;outlineConnect=0;align=center;shape=mxgraph.office.databases.database_mini_2;" vertex="1" parent="1">
          <mxGeometry x="505.5" y="227.04000000000002" width="35" height="42" as="geometry" />
        </mxCell>
        <mxCell id="9X4uK67-wVAKvBLCsRBX-21" value="" style="edgeStyle=orthogonalEdgeStyle;rounded=0;orthogonalLoop=1;jettySize=auto;html=1;" edge="1" parent="1" source="9X4uK67-wVAKvBLCsRBX-9" target="9X4uK67-wVAKvBLCsRBX-12">
          <mxGeometry relative="1" as="geometry" />
        </mxCell>
        <mxCell id="9X4uK67-wVAKvBLCsRBX-9" value="Sequencing&lt;br&gt;Reads" style="sketch=0;pointerEvents=1;shadow=0;dashed=0;html=1;strokeColor=none;fillColor=#505050;labelPosition=center;verticalLabelPosition=bottom;verticalAlign=top;outlineConnect=0;align=center;shape=mxgraph.office.concepts.documents;fillStyle=solid;" vertex="1" parent="1">
          <mxGeometry x="500" y="120.00000000000003" width="46" height="54" as="geometry" />
        </mxCell>
        <mxCell id="9X4uK67-wVAKvBLCsRBX-28" style="edgeStyle=orthogonalEdgeStyle;rounded=0;orthogonalLoop=1;jettySize=auto;html=1;exitX=1;exitY=0.5;exitDx=0;exitDy=0;entryX=0.25;entryY=0;entryDx=0;entryDy=0;" edge="1" parent="1" source="9X4uK67-wVAKvBLCsRBX-12" target="9X4uK67-wVAKvBLCsRBX-19">
          <mxGeometry relative="1" as="geometry" />
        </mxCell>
        <mxCell id="9X4uK67-wVAKvBLCsRBX-12" value="Read QC&lt;br&gt;(seqtk)" style="rounded=0;whiteSpace=wrap;html=1;" vertex="1" parent="1">
          <mxGeometry x="614.5" y="127.00000000000003" width="83" height="40" as="geometry" />
        </mxCell>
        <mxCell id="9X4uK67-wVAKvBLCsRBX-24" value="" style="edgeStyle=orthogonalEdgeStyle;rounded=0;orthogonalLoop=1;jettySize=auto;html=1;" edge="1" parent="1" source="9X4uK67-wVAKvBLCsRBX-13" target="9X4uK67-wVAKvBLCsRBX-17">
          <mxGeometry relative="1" as="geometry" />
        </mxCell>
        <mxCell id="9X4uK67-wVAKvBLCsRBX-26" value="" style="edgeStyle=orthogonalEdgeStyle;rounded=0;orthogonalLoop=1;jettySize=auto;html=1;" edge="1" parent="1" source="9X4uK67-wVAKvBLCsRBX-13" target="9X4uK67-wVAKvBLCsRBX-15">
          <mxGeometry relative="1" as="geometry" />
        </mxCell>
        <mxCell id="9X4uK67-wVAKvBLCsRBX-47" style="edgeStyle=orthogonalEdgeStyle;rounded=0;orthogonalLoop=1;jettySize=auto;html=1;exitX=0.25;exitY=1;exitDx=0;exitDy=0;" edge="1" parent="1" source="9X4uK67-wVAKvBLCsRBX-13" target="9X4uK67-wVAKvBLCsRBX-30">
          <mxGeometry relative="1" as="geometry" />
        </mxCell>
        <mxCell id="9X4uK67-wVAKvBLCsRBX-13" value="Alignment&lt;br&gt;(bwa)" style="rounded=0;whiteSpace=wrap;html=1;" vertex="1" parent="1">
          <mxGeometry x="614.5" y="228.04000000000002" width="83" height="40" as="geometry" />
        </mxCell>
        <mxCell id="9X4uK67-wVAKvBLCsRBX-27" value="" style="edgeStyle=orthogonalEdgeStyle;rounded=0;orthogonalLoop=1;jettySize=auto;html=1;" edge="1" parent="1" source="9X4uK67-wVAKvBLCsRBX-15" target="9X4uK67-wVAKvBLCsRBX-18">
          <mxGeometry relative="1" as="geometry" />
        </mxCell>
        <mxCell id="9X4uK67-wVAKvBLCsRBX-43" style="edgeStyle=orthogonalEdgeStyle;rounded=0;orthogonalLoop=1;jettySize=auto;html=1;exitX=0;exitY=0.25;exitDx=0;exitDy=0;" edge="1" parent="1" source="9X4uK67-wVAKvBLCsRBX-15" target="9X4uK67-wVAKvBLCsRBX-31">
          <mxGeometry relative="1" as="geometry" />
        </mxCell>
        <mxCell id="9X4uK67-wVAKvBLCsRBX-15" value="Variant calling&lt;br&gt;(bcftools)" style="rounded=0;whiteSpace=wrap;html=1;" vertex="1" parent="1">
          <mxGeometry x="614.5" y="320" width="83" height="40" as="geometry" />
        </mxCell>
        <mxCell id="9X4uK67-wVAKvBLCsRBX-25" value="" style="edgeStyle=orthogonalEdgeStyle;rounded=0;orthogonalLoop=1;jettySize=auto;html=1;" edge="1" parent="1" source="9X4uK67-wVAKvBLCsRBX-17" target="9X4uK67-wVAKvBLCsRBX-19">
          <mxGeometry relative="1" as="geometry" />
        </mxCell>
        <mxCell id="9X4uK67-wVAKvBLCsRBX-17" value="Alignment QC&lt;br&gt;(samtools)" style="rounded=0;whiteSpace=wrap;html=1;" vertex="1" parent="1">
          <mxGeometry x="744.5" y="228.04000000000002" width="83" height="40" as="geometry" />
        </mxCell>
        <mxCell id="9X4uK67-wVAKvBLCsRBX-29" style="edgeStyle=orthogonalEdgeStyle;rounded=0;orthogonalLoop=1;jettySize=auto;html=1;exitX=1;exitY=0.5;exitDx=0;exitDy=0;entryX=0.25;entryY=1;entryDx=0;entryDy=0;" edge="1" parent="1" source="9X4uK67-wVAKvBLCsRBX-18" target="9X4uK67-wVAKvBLCsRBX-19">
          <mxGeometry relative="1" as="geometry" />
        </mxCell>
        <mxCell id="9X4uK67-wVAKvBLCsRBX-18" value="Variant QC&lt;br&gt;(bcftools)" style="rounded=0;whiteSpace=wrap;html=1;" vertex="1" parent="1">
          <mxGeometry x="744.5" y="320" width="83" height="40" as="geometry" />
        </mxCell>
        <mxCell id="9X4uK67-wVAKvBLCsRBX-48" style="edgeStyle=orthogonalEdgeStyle;rounded=0;orthogonalLoop=1;jettySize=auto;html=1;exitX=0.5;exitY=1;exitDx=0;exitDy=0;" edge="1" parent="1" source="9X4uK67-wVAKvBLCsRBX-19" target="9X4uK67-wVAKvBLCsRBX-32">
          <mxGeometry relative="1" as="geometry">
            <Array as="points">
              <mxPoint x="929" y="420" />
            </Array>
          </mxGeometry>
        </mxCell>
        <mxCell id="9X4uK67-wVAKvBLCsRBX-19" value="Compile Report&lt;br&gt;(R script/pkg)" style="rounded=0;whiteSpace=wrap;html=1;" vertex="1" parent="1">
          <mxGeometry x="884.5" y="228.04000000000002" width="88" height="40" as="geometry" />
        </mxCell>
        <mxCell id="9X4uK67-wVAKvBLCsRBX-30" value="Alignments" style="sketch=0;pointerEvents=1;shadow=0;dashed=0;html=1;strokeColor=none;fillColor=#505050;labelPosition=center;verticalLabelPosition=bottom;verticalAlign=top;outlineConnect=0;align=center;shape=mxgraph.office.concepts.documents;" vertex="1" parent="1">
          <mxGeometry x="160" y="330" width="46" height="54" as="geometry" />
        </mxCell>
        <mxCell id="9X4uK67-wVAKvBLCsRBX-31" value="Variants" style="sketch=0;pointerEvents=1;shadow=0;dashed=0;html=1;strokeColor=none;fillColor=#505050;labelPosition=center;verticalLabelPosition=bottom;verticalAlign=top;outlineConnect=0;align=center;shape=mxgraph.office.concepts.documents;" vertex="1" parent="1">
          <mxGeometry x="235.5" y="370" width="46" height="54" as="geometry" />
        </mxCell>
        <mxCell id="9X4uK67-wVAKvBLCsRBX-32" value="QC Report" style="sketch=0;pointerEvents=1;shadow=0;dashed=0;html=1;strokeColor=none;fillColor=#505050;labelPosition=center;verticalLabelPosition=bottom;verticalAlign=top;outlineConnect=0;align=center;shape=mxgraph.office.concepts.documents;" vertex="1" parent="1">
          <mxGeometry x="310" y="390" width="46" height="54" as="geometry" />
        </mxCell>
        <mxCell id="9X4uK67-wVAKvBLCsRBX-51" value="Host filesystem" style="text;html=1;align=center;verticalAlign=middle;resizable=0;points=[];autosize=1;strokeColor=none;fillColor=none;fontSize=14;fontStyle=1" vertex="1" parent="1">
          <mxGeometry x="188" y="80" width="130" height="30" as="geometry" />
        </mxCell>
      </root>
    </mxGraphModel>
  </diagram>
</mxfile>
